<mxfile host="Electron" agent="Mozilla/5.0 (Windows NT 10.0; Win64; x64) AppleWebKit/537.36 (KHTML, like Gecko) draw.io/25.0.2 Chrome/128.0.6613.186 Electron/32.2.5 Safari/537.36" version="25.0.2">
  <diagram name="Страница — 1" id="3C2JnnykkL-mnYDnw4SD">
    <mxGraphModel dx="2868" dy="1768" grid="1" gridSize="10" guides="1" tooltips="1" connect="1" arrows="1" fold="1" page="1" pageScale="1" pageWidth="827" pageHeight="1169" math="0" shadow="0">
      <root>
        <mxCell id="0" />
        <mxCell id="1" parent="0" />
        <mxCell id="LuwOvKd29Y2pihcqQ2Ks-4" style="edgeStyle=orthogonalEdgeStyle;rounded=0;orthogonalLoop=1;jettySize=auto;html=1;" parent="1" source="LuwOvKd29Y2pihcqQ2Ks-1" target="LuwOvKd29Y2pihcqQ2Ks-3" edge="1">
          <mxGeometry relative="1" as="geometry" />
        </mxCell>
        <mxCell id="LuwOvKd29Y2pihcqQ2Ks-1" value="Начало&lt;div&gt;Кривая&lt;/div&gt;" style="rounded=1;whiteSpace=wrap;html=1;arcSize=50;" parent="1" vertex="1">
          <mxGeometry x="10" y="10" width="200" height="40" as="geometry" />
        </mxCell>
        <mxCell id="LuwOvKd29Y2pihcqQ2Ks-2" value="Конец&lt;div&gt;Кривая&lt;/div&gt;" style="rounded=1;whiteSpace=wrap;html=1;arcSize=50;" parent="1" vertex="1">
          <mxGeometry x="10" y="170" width="200" height="40" as="geometry" />
        </mxCell>
        <mxCell id="LuwOvKd29Y2pihcqQ2Ks-8" style="edgeStyle=orthogonalEdgeStyle;rounded=0;orthogonalLoop=1;jettySize=auto;html=1;" parent="1" source="LuwOvKd29Y2pihcqQ2Ks-3" target="LuwOvKd29Y2pihcqQ2Ks-7" edge="1">
          <mxGeometry relative="1" as="geometry" />
        </mxCell>
        <mxCell id="LuwOvKd29Y2pihcqQ2Ks-3" value="x" style="shape=parallelogram;perimeter=parallelogramPerimeter;whiteSpace=wrap;html=1;fixedSize=1;" parent="1" vertex="1">
          <mxGeometry x="10" y="70" width="200" height="30" as="geometry" />
        </mxCell>
        <mxCell id="LuwOvKd29Y2pihcqQ2Ks-5" value="x - вещественное число, по значению" style="strokeWidth=1;html=1;shape=mxgraph.flowchart.annotation_1;align=left;pointerEvents=1;" parent="1" vertex="1">
          <mxGeometry x="240" y="70" width="5" height="30" as="geometry" />
        </mxCell>
        <mxCell id="LuwOvKd29Y2pihcqQ2Ks-6" value="" style="endArrow=none;html=1;rounded=0;entryX=0;entryY=0.5;entryDx=0;entryDy=0;entryPerimeter=0;dashed=1;" parent="1" source="LuwOvKd29Y2pihcqQ2Ks-3" target="LuwOvKd29Y2pihcqQ2Ks-5" edge="1">
          <mxGeometry width="50" height="50" relative="1" as="geometry">
            <mxPoint x="210" y="85" as="sourcePoint" />
            <mxPoint x="290" y="75" as="targetPoint" />
          </mxGeometry>
        </mxCell>
        <mxCell id="LuwOvKd29Y2pihcqQ2Ks-9" style="edgeStyle=orthogonalEdgeStyle;rounded=0;orthogonalLoop=1;jettySize=auto;html=1;" parent="1" source="LuwOvKd29Y2pihcqQ2Ks-7" target="LuwOvKd29Y2pihcqQ2Ks-2" edge="1">
          <mxGeometry relative="1" as="geometry" />
        </mxCell>
        <mxCell id="LuwOvKd29Y2pihcqQ2Ks-7" value="2 * x&lt;span style=&quot;font-size: 10px;&quot;&gt;&lt;sup&gt;3&lt;/sup&gt;&lt;/span&gt;&amp;nbsp;- 2 * x&lt;span style=&quot;font-size: 10px;&quot;&gt;&lt;sup&gt;2&lt;/sup&gt;&lt;/span&gt;&amp;nbsp;+ 0 * x + 16" style="shape=parallelogram;perimeter=parallelogramPerimeter;whiteSpace=wrap;html=1;fixedSize=1;" parent="1" vertex="1">
          <mxGeometry x="10" y="120" width="200" height="30" as="geometry" />
        </mxCell>
        <mxCell id="LuwOvKd29Y2pihcqQ2Ks-14" style="edgeStyle=orthogonalEdgeStyle;rounded=0;orthogonalLoop=1;jettySize=auto;html=1;" parent="1" source="LuwOvKd29Y2pihcqQ2Ks-10" target="LuwOvKd29Y2pihcqQ2Ks-11" edge="1">
          <mxGeometry relative="1" as="geometry" />
        </mxCell>
        <mxCell id="LuwOvKd29Y2pihcqQ2Ks-10" value="Начало&lt;div&gt;Первообразная&lt;/div&gt;" style="rounded=1;whiteSpace=wrap;html=1;arcSize=50;" parent="1" vertex="1">
          <mxGeometry x="10" y="250" width="200" height="40" as="geometry" />
        </mxCell>
        <mxCell id="LuwOvKd29Y2pihcqQ2Ks-16" style="edgeStyle=orthogonalEdgeStyle;rounded=0;orthogonalLoop=1;jettySize=auto;html=1;" parent="1" source="LuwOvKd29Y2pihcqQ2Ks-11" target="LuwOvKd29Y2pihcqQ2Ks-15" edge="1">
          <mxGeometry relative="1" as="geometry" />
        </mxCell>
        <mxCell id="LuwOvKd29Y2pihcqQ2Ks-11" value="x" style="shape=parallelogram;perimeter=parallelogramPerimeter;whiteSpace=wrap;html=1;fixedSize=1;" parent="1" vertex="1">
          <mxGeometry x="10" y="310" width="200" height="30" as="geometry" />
        </mxCell>
        <mxCell id="LuwOvKd29Y2pihcqQ2Ks-12" value="x - вещественное число, по значению" style="strokeWidth=1;html=1;shape=mxgraph.flowchart.annotation_1;align=left;pointerEvents=1;" parent="1" vertex="1">
          <mxGeometry x="240" y="310" width="5" height="30" as="geometry" />
        </mxCell>
        <mxCell id="LuwOvKd29Y2pihcqQ2Ks-13" value="" style="endArrow=none;html=1;rounded=0;entryX=0;entryY=0.5;entryDx=0;entryDy=0;entryPerimeter=0;dashed=1;" parent="1" source="LuwOvKd29Y2pihcqQ2Ks-11" target="LuwOvKd29Y2pihcqQ2Ks-12" edge="1">
          <mxGeometry width="50" height="50" relative="1" as="geometry">
            <mxPoint x="210" y="325" as="sourcePoint" />
            <mxPoint x="290" y="315" as="targetPoint" />
          </mxGeometry>
        </mxCell>
        <mxCell id="LuwOvKd29Y2pihcqQ2Ks-18" style="edgeStyle=orthogonalEdgeStyle;rounded=0;orthogonalLoop=1;jettySize=auto;html=1;" parent="1" source="LuwOvKd29Y2pihcqQ2Ks-15" target="LuwOvKd29Y2pihcqQ2Ks-17" edge="1">
          <mxGeometry relative="1" as="geometry" />
        </mxCell>
        <mxCell id="LuwOvKd29Y2pihcqQ2Ks-15" value="0,5 * x&lt;span style=&quot;font-size: 8.33333px;&quot;&gt;&lt;sup&gt;4&lt;/sup&gt;&lt;/span&gt;&amp;nbsp;- 2 / 3 * x&lt;span style=&quot;font-size: 10px;&quot;&gt;&lt;sup&gt;3&lt;/sup&gt;&lt;/span&gt;&amp;nbsp;+ 16 * x" style="shape=parallelogram;perimeter=parallelogramPerimeter;whiteSpace=wrap;html=1;fixedSize=1;" parent="1" vertex="1">
          <mxGeometry x="10" y="360" width="200" height="30" as="geometry" />
        </mxCell>
        <mxCell id="LuwOvKd29Y2pihcqQ2Ks-17" value="Конец&lt;div&gt;Первообразная&lt;/div&gt;" style="rounded=1;whiteSpace=wrap;html=1;arcSize=50;" parent="1" vertex="1">
          <mxGeometry x="10" y="410" width="200" height="40" as="geometry" />
        </mxCell>
        <mxCell id="LuwOvKd29Y2pihcqQ2Ks-23" style="edgeStyle=orthogonalEdgeStyle;rounded=0;orthogonalLoop=1;jettySize=auto;html=1;" parent="1" source="LuwOvKd29Y2pihcqQ2Ks-19" target="LuwOvKd29Y2pihcqQ2Ks-21" edge="1">
          <mxGeometry relative="1" as="geometry" />
        </mxCell>
        <mxCell id="LuwOvKd29Y2pihcqQ2Ks-19" value="Начало&lt;div&gt;Левый прямоугольник&lt;/div&gt;" style="rounded=1;whiteSpace=wrap;html=1;arcSize=50;" parent="1" vertex="1">
          <mxGeometry x="520" y="10" width="200" height="40" as="geometry" />
        </mxCell>
        <mxCell id="LuwOvKd29Y2pihcqQ2Ks-20" value="Конец&lt;div&gt;Левый прямоугольник&lt;/div&gt;" style="rounded=1;whiteSpace=wrap;html=1;arcSize=50;" parent="1" vertex="1">
          <mxGeometry x="520" y="490" width="200" height="40" as="geometry" />
        </mxCell>
        <mxCell id="LuwOvKd29Y2pihcqQ2Ks-27" style="edgeStyle=orthogonalEdgeStyle;rounded=0;orthogonalLoop=1;jettySize=auto;html=1;" parent="1" source="LuwOvKd29Y2pihcqQ2Ks-21" target="LuwOvKd29Y2pihcqQ2Ks-26" edge="1">
          <mxGeometry relative="1" as="geometry" />
        </mxCell>
        <mxCell id="LuwOvKd29Y2pihcqQ2Ks-21" value="a, b, h" style="shape=parallelogram;perimeter=parallelogramPerimeter;whiteSpace=wrap;html=1;fixedSize=1;" parent="1" vertex="1">
          <mxGeometry x="520" y="70" width="200" height="30" as="geometry" />
        </mxCell>
        <mxCell id="LuwOvKd29Y2pihcqQ2Ks-24" value="a - нижний предел, по значению&lt;div&gt;b - верхний предел, по значению&lt;br&gt;&lt;/div&gt;&lt;div&gt;h - шаг&amp;nbsp; интегрирования&lt;/div&gt;" style="strokeWidth=1;html=1;shape=mxgraph.flowchart.annotation_1;align=left;pointerEvents=1;" parent="1" vertex="1">
          <mxGeometry x="750" y="65" width="5" height="40" as="geometry" />
        </mxCell>
        <mxCell id="LuwOvKd29Y2pihcqQ2Ks-25" value="" style="endArrow=none;html=1;rounded=0;entryX=0;entryY=0.5;entryDx=0;entryDy=0;entryPerimeter=0;dashed=1;" parent="1" source="LuwOvKd29Y2pihcqQ2Ks-21" target="LuwOvKd29Y2pihcqQ2Ks-24" edge="1">
          <mxGeometry width="50" height="50" relative="1" as="geometry">
            <mxPoint x="720" y="85" as="sourcePoint" />
            <mxPoint x="800" y="75" as="targetPoint" />
          </mxGeometry>
        </mxCell>
        <mxCell id="LuwOvKd29Y2pihcqQ2Ks-31" style="edgeStyle=orthogonalEdgeStyle;rounded=0;orthogonalLoop=1;jettySize=auto;html=1;" parent="1" source="LuwOvKd29Y2pihcqQ2Ks-26" target="LuwOvKd29Y2pihcqQ2Ks-30" edge="1">
          <mxGeometry relative="1" as="geometry" />
        </mxCell>
        <mxCell id="LuwOvKd29Y2pihcqQ2Ks-26" value="s = 0, i = a" style="rounded=0;whiteSpace=wrap;html=1;" parent="1" vertex="1">
          <mxGeometry x="520" y="120" width="200" height="30" as="geometry" />
        </mxCell>
        <mxCell id="LuwOvKd29Y2pihcqQ2Ks-28" value="s - площадь фигуры&lt;div&gt;i - счетчик цикла&lt;/div&gt;" style="strokeWidth=1;html=1;shape=mxgraph.flowchart.annotation_1;align=left;pointerEvents=1;" parent="1" vertex="1">
          <mxGeometry x="750" y="120" width="5" height="30" as="geometry" />
        </mxCell>
        <mxCell id="LuwOvKd29Y2pihcqQ2Ks-29" value="" style="endArrow=none;html=1;rounded=0;entryX=0;entryY=0.5;entryDx=0;entryDy=0;entryPerimeter=0;exitX=1;exitY=0.5;exitDx=0;exitDy=0;dashed=1;" parent="1" target="LuwOvKd29Y2pihcqQ2Ks-28" edge="1">
          <mxGeometry width="50" height="50" relative="1" as="geometry">
            <mxPoint x="720" y="135" as="sourcePoint" />
            <mxPoint x="800" y="125" as="targetPoint" />
          </mxGeometry>
        </mxCell>
        <mxCell id="LuwOvKd29Y2pihcqQ2Ks-35" style="edgeStyle=orthogonalEdgeStyle;rounded=0;orthogonalLoop=1;jettySize=auto;html=1;" parent="1" source="LuwOvKd29Y2pihcqQ2Ks-30" target="LuwOvKd29Y2pihcqQ2Ks-32" edge="1">
          <mxGeometry relative="1" as="geometry" />
        </mxCell>
        <mxCell id="LuwOvKd29Y2pihcqQ2Ks-30" value="Подсчет&lt;div&gt;i &amp;gt; b&lt;/div&gt;" style="shape=loopLimit;whiteSpace=wrap;html=1;" parent="1" vertex="1">
          <mxGeometry x="520" y="170" width="200" height="40" as="geometry" />
        </mxCell>
        <mxCell id="LuwOvKd29Y2pihcqQ2Ks-37" style="edgeStyle=orthogonalEdgeStyle;rounded=0;orthogonalLoop=1;jettySize=auto;html=1;" parent="1" source="LuwOvKd29Y2pihcqQ2Ks-32" target="LuwOvKd29Y2pihcqQ2Ks-36" edge="1">
          <mxGeometry relative="1" as="geometry" />
        </mxCell>
        <mxCell id="LuwOvKd29Y2pihcqQ2Ks-32" value="y = кривая((i + h) * h)" style="rounded=0;whiteSpace=wrap;html=1;" parent="1" vertex="1">
          <mxGeometry x="520" y="230" width="200" height="30" as="geometry" />
        </mxCell>
        <mxCell id="LuwOvKd29Y2pihcqQ2Ks-33" value="" style="endArrow=none;html=1;rounded=0;entryX=0.051;entryY=0.009;entryDx=0;entryDy=0;entryPerimeter=0;exitX=0.051;exitY=1.011;exitDx=0;exitDy=0;exitPerimeter=0;" parent="1" edge="1">
          <mxGeometry width="50" height="50" relative="1" as="geometry">
            <mxPoint x="530" y="260" as="sourcePoint" />
            <mxPoint x="530" y="230" as="targetPoint" />
          </mxGeometry>
        </mxCell>
        <mxCell id="LuwOvKd29Y2pihcqQ2Ks-34" value="" style="endArrow=none;html=1;rounded=0;entryX=0.051;entryY=0.009;entryDx=0;entryDy=0;entryPerimeter=0;exitX=0.051;exitY=1.011;exitDx=0;exitDy=0;exitPerimeter=0;" parent="1" edge="1">
          <mxGeometry width="50" height="50" relative="1" as="geometry">
            <mxPoint x="710" y="260" as="sourcePoint" />
            <mxPoint x="710" y="230" as="targetPoint" />
          </mxGeometry>
        </mxCell>
        <mxCell id="LuwOvKd29Y2pihcqQ2Ks-39" style="edgeStyle=orthogonalEdgeStyle;rounded=0;orthogonalLoop=1;jettySize=auto;html=1;" parent="1" source="LuwOvKd29Y2pihcqQ2Ks-36" target="LuwOvKd29Y2pihcqQ2Ks-38" edge="1">
          <mxGeometry relative="1" as="geometry" />
        </mxCell>
        <mxCell id="LuwOvKd29Y2pihcqQ2Ks-36" value="s = s + y" style="rounded=0;whiteSpace=wrap;html=1;" parent="1" vertex="1">
          <mxGeometry x="520" y="280" width="200" height="30" as="geometry" />
        </mxCell>
        <mxCell id="LuwOvKd29Y2pihcqQ2Ks-42" style="edgeStyle=orthogonalEdgeStyle;rounded=0;orthogonalLoop=1;jettySize=auto;html=1;" parent="1" source="LuwOvKd29Y2pihcqQ2Ks-38" target="LuwOvKd29Y2pihcqQ2Ks-41" edge="1">
          <mxGeometry relative="1" as="geometry" />
        </mxCell>
        <mxCell id="LuwOvKd29Y2pihcqQ2Ks-38" value="i = i + h" style="rounded=0;whiteSpace=wrap;html=1;" parent="1" vertex="1">
          <mxGeometry x="520" y="330" width="200" height="30" as="geometry" />
        </mxCell>
        <mxCell id="LuwOvKd29Y2pihcqQ2Ks-44" style="edgeStyle=orthogonalEdgeStyle;rounded=0;orthogonalLoop=1;jettySize=auto;html=1;" parent="1" source="LuwOvKd29Y2pihcqQ2Ks-41" target="LuwOvKd29Y2pihcqQ2Ks-43" edge="1">
          <mxGeometry relative="1" as="geometry" />
        </mxCell>
        <mxCell id="LuwOvKd29Y2pihcqQ2Ks-41" value="Подсчет" style="shape=loopLimit;whiteSpace=wrap;html=1;direction=west;" parent="1" vertex="1">
          <mxGeometry x="520" y="380" width="200" height="40" as="geometry" />
        </mxCell>
        <mxCell id="LuwOvKd29Y2pihcqQ2Ks-46" style="edgeStyle=orthogonalEdgeStyle;rounded=0;orthogonalLoop=1;jettySize=auto;html=1;" parent="1" source="LuwOvKd29Y2pihcqQ2Ks-43" target="LuwOvKd29Y2pihcqQ2Ks-20" edge="1">
          <mxGeometry relative="1" as="geometry" />
        </mxCell>
        <mxCell id="LuwOvKd29Y2pihcqQ2Ks-43" value="s" style="shape=parallelogram;perimeter=parallelogramPerimeter;whiteSpace=wrap;html=1;fixedSize=1;" parent="1" vertex="1">
          <mxGeometry x="520" y="440" width="200" height="30" as="geometry" />
        </mxCell>
        <mxCell id="LuwOvKd29Y2pihcqQ2Ks-51" style="edgeStyle=orthogonalEdgeStyle;rounded=0;orthogonalLoop=1;jettySize=auto;html=1;" parent="1" source="LuwOvKd29Y2pihcqQ2Ks-47" target="LuwOvKd29Y2pihcqQ2Ks-50" edge="1">
          <mxGeometry relative="1" as="geometry" />
        </mxCell>
        <mxCell id="LuwOvKd29Y2pihcqQ2Ks-47" value="Начало&lt;div&gt;Ньютон&lt;/div&gt;" style="rounded=1;whiteSpace=wrap;html=1;arcSize=50;" parent="1" vertex="1">
          <mxGeometry x="10" y="490" width="200" height="40" as="geometry" />
        </mxCell>
        <mxCell id="LuwOvKd29Y2pihcqQ2Ks-48" value="Конец&lt;div&gt;Ньютон&lt;/div&gt;" style="rounded=1;whiteSpace=wrap;html=1;arcSize=50;" parent="1" vertex="1">
          <mxGeometry x="10" y="750" width="200" height="40" as="geometry" />
        </mxCell>
        <mxCell id="LuwOvKd29Y2pihcqQ2Ks-57" style="edgeStyle=orthogonalEdgeStyle;rounded=0;orthogonalLoop=1;jettySize=auto;html=1;" parent="1" source="LuwOvKd29Y2pihcqQ2Ks-50" target="LuwOvKd29Y2pihcqQ2Ks-54" edge="1">
          <mxGeometry relative="1" as="geometry" />
        </mxCell>
        <mxCell id="LuwOvKd29Y2pihcqQ2Ks-50" value="a, b" style="shape=parallelogram;perimeter=parallelogramPerimeter;whiteSpace=wrap;html=1;fixedSize=1;" parent="1" vertex="1">
          <mxGeometry x="10" y="550" width="200" height="30" as="geometry" />
        </mxCell>
        <mxCell id="LuwOvKd29Y2pihcqQ2Ks-52" value="a - нижний предел, по значению&lt;div&gt;b - верхний предел, по значению&lt;/div&gt;" style="strokeWidth=1;html=1;shape=mxgraph.flowchart.annotation_1;align=left;pointerEvents=1;" parent="1" vertex="1">
          <mxGeometry x="235" y="550" width="5" height="30" as="geometry" />
        </mxCell>
        <mxCell id="LuwOvKd29Y2pihcqQ2Ks-53" value="" style="endArrow=none;html=1;rounded=0;entryX=0;entryY=0.5;entryDx=0;entryDy=0;entryPerimeter=0;dashed=1;" parent="1" source="LuwOvKd29Y2pihcqQ2Ks-50" target="LuwOvKd29Y2pihcqQ2Ks-52" edge="1">
          <mxGeometry width="50" height="50" relative="1" as="geometry">
            <mxPoint x="205" y="565" as="sourcePoint" />
            <mxPoint x="285" y="555" as="targetPoint" />
          </mxGeometry>
        </mxCell>
        <mxCell id="LuwOvKd29Y2pihcqQ2Ks-62" style="edgeStyle=orthogonalEdgeStyle;rounded=0;orthogonalLoop=1;jettySize=auto;html=1;" parent="1" source="LuwOvKd29Y2pihcqQ2Ks-54" target="LuwOvKd29Y2pihcqQ2Ks-59" edge="1">
          <mxGeometry relative="1" as="geometry" />
        </mxCell>
        <mxCell id="LuwOvKd29Y2pihcqQ2Ks-54" value="b = первообразная(b)" style="rounded=0;whiteSpace=wrap;html=1;" parent="1" vertex="1">
          <mxGeometry x="10" y="600" width="200" height="30" as="geometry" />
        </mxCell>
        <mxCell id="LuwOvKd29Y2pihcqQ2Ks-55" value="" style="endArrow=none;html=1;rounded=0;entryX=0.051;entryY=0.009;entryDx=0;entryDy=0;entryPerimeter=0;exitX=0.051;exitY=1.011;exitDx=0;exitDy=0;exitPerimeter=0;" parent="1" edge="1">
          <mxGeometry width="50" height="50" relative="1" as="geometry">
            <mxPoint x="20" y="630" as="sourcePoint" />
            <mxPoint x="20" y="600" as="targetPoint" />
          </mxGeometry>
        </mxCell>
        <mxCell id="LuwOvKd29Y2pihcqQ2Ks-56" value="" style="endArrow=none;html=1;rounded=0;entryX=0.051;entryY=0.009;entryDx=0;entryDy=0;entryPerimeter=0;exitX=0.051;exitY=1.011;exitDx=0;exitDy=0;exitPerimeter=0;" parent="1" edge="1">
          <mxGeometry width="50" height="50" relative="1" as="geometry">
            <mxPoint x="200" y="630" as="sourcePoint" />
            <mxPoint x="200" y="600" as="targetPoint" />
          </mxGeometry>
        </mxCell>
        <mxCell id="LuwOvKd29Y2pihcqQ2Ks-64" style="edgeStyle=orthogonalEdgeStyle;rounded=0;orthogonalLoop=1;jettySize=auto;html=1;" parent="1" source="LuwOvKd29Y2pihcqQ2Ks-59" target="LuwOvKd29Y2pihcqQ2Ks-63" edge="1">
          <mxGeometry relative="1" as="geometry" />
        </mxCell>
        <mxCell id="LuwOvKd29Y2pihcqQ2Ks-59" value="a = первообразная(a)" style="rounded=0;whiteSpace=wrap;html=1;" parent="1" vertex="1">
          <mxGeometry x="10" y="650" width="200" height="30" as="geometry" />
        </mxCell>
        <mxCell id="LuwOvKd29Y2pihcqQ2Ks-60" value="" style="endArrow=none;html=1;rounded=0;entryX=0.051;entryY=0.009;entryDx=0;entryDy=0;entryPerimeter=0;exitX=0.051;exitY=1.011;exitDx=0;exitDy=0;exitPerimeter=0;" parent="1" edge="1">
          <mxGeometry width="50" height="50" relative="1" as="geometry">
            <mxPoint x="20" y="680" as="sourcePoint" />
            <mxPoint x="20" y="650" as="targetPoint" />
          </mxGeometry>
        </mxCell>
        <mxCell id="LuwOvKd29Y2pihcqQ2Ks-61" value="" style="endArrow=none;html=1;rounded=0;entryX=0.051;entryY=0.009;entryDx=0;entryDy=0;entryPerimeter=0;exitX=0.051;exitY=1.011;exitDx=0;exitDy=0;exitPerimeter=0;" parent="1" edge="1">
          <mxGeometry width="50" height="50" relative="1" as="geometry">
            <mxPoint x="200" y="680" as="sourcePoint" />
            <mxPoint x="200" y="650" as="targetPoint" />
          </mxGeometry>
        </mxCell>
        <mxCell id="LuwOvKd29Y2pihcqQ2Ks-65" style="edgeStyle=orthogonalEdgeStyle;rounded=0;orthogonalLoop=1;jettySize=auto;html=1;" parent="1" source="LuwOvKd29Y2pihcqQ2Ks-63" target="LuwOvKd29Y2pihcqQ2Ks-48" edge="1">
          <mxGeometry relative="1" as="geometry" />
        </mxCell>
        <mxCell id="LuwOvKd29Y2pihcqQ2Ks-63" value="b - a" style="shape=parallelogram;perimeter=parallelogramPerimeter;whiteSpace=wrap;html=1;fixedSize=1;" parent="1" vertex="1">
          <mxGeometry x="10" y="700" width="200" height="30" as="geometry" />
        </mxCell>
        <mxCell id="LuwOvKd29Y2pihcqQ2Ks-146" style="edgeStyle=orthogonalEdgeStyle;rounded=0;orthogonalLoop=1;jettySize=auto;html=1;" parent="1" source="LuwOvKd29Y2pihcqQ2Ks-66" target="LuwOvKd29Y2pihcqQ2Ks-84" edge="1">
          <mxGeometry relative="1" as="geometry" />
        </mxCell>
        <mxCell id="LuwOvKd29Y2pihcqQ2Ks-66" value="Начало" style="rounded=1;whiteSpace=wrap;html=1;arcSize=50;" parent="1" vertex="1">
          <mxGeometry x="1040" y="10" width="200" height="30" as="geometry" />
        </mxCell>
        <mxCell id="LuwOvKd29Y2pihcqQ2Ks-145" style="edgeStyle=orthogonalEdgeStyle;rounded=0;orthogonalLoop=1;jettySize=auto;html=1;" parent="1" source="LuwOvKd29Y2pihcqQ2Ks-67" target="LuwOvKd29Y2pihcqQ2Ks-71" edge="1">
          <mxGeometry relative="1" as="geometry" />
        </mxCell>
        <mxCell id="LuwOvKd29Y2pihcqQ2Ks-67" value="Ввод choice" style="shape=parallelogram;perimeter=parallelogramPerimeter;whiteSpace=wrap;html=1;fixedSize=1;" parent="1" vertex="1">
          <mxGeometry x="1040" y="130" width="200" height="30" as="geometry" />
        </mxCell>
        <mxCell id="LuwOvKd29Y2pihcqQ2Ks-69" value="choice - пункт меню" style="strokeWidth=1;html=1;shape=mxgraph.flowchart.annotation_1;align=left;pointerEvents=1;" parent="1" vertex="1">
          <mxGeometry x="1270" y="130" width="5" height="30" as="geometry" />
        </mxCell>
        <mxCell id="LuwOvKd29Y2pihcqQ2Ks-70" value="" style="endArrow=none;html=1;rounded=0;entryX=0;entryY=0.5;entryDx=0;entryDy=0;entryPerimeter=0;dashed=1;" parent="1" source="LuwOvKd29Y2pihcqQ2Ks-67" target="LuwOvKd29Y2pihcqQ2Ks-69" edge="1">
          <mxGeometry width="50" height="50" relative="1" as="geometry">
            <mxPoint x="1240" y="145" as="sourcePoint" />
            <mxPoint x="1320" y="135" as="targetPoint" />
          </mxGeometry>
        </mxCell>
        <mxCell id="LuwOvKd29Y2pihcqQ2Ks-74" style="edgeStyle=orthogonalEdgeStyle;rounded=0;orthogonalLoop=1;jettySize=auto;html=1;" parent="1" source="LuwOvKd29Y2pihcqQ2Ks-71" target="LuwOvKd29Y2pihcqQ2Ks-73" edge="1">
          <mxGeometry relative="1" as="geometry" />
        </mxCell>
        <mxCell id="LuwOvKd29Y2pihcqQ2Ks-71" value="choice" style="rhombus;whiteSpace=wrap;html=1;" parent="1" vertex="1">
          <mxGeometry x="1040" y="180" width="200" height="60" as="geometry" />
        </mxCell>
        <mxCell id="LuwOvKd29Y2pihcqQ2Ks-76" style="edgeStyle=orthogonalEdgeStyle;rounded=0;orthogonalLoop=1;jettySize=auto;html=1;" parent="1" source="LuwOvKd29Y2pihcqQ2Ks-73" target="LuwOvKd29Y2pihcqQ2Ks-75" edge="1">
          <mxGeometry relative="1" as="geometry" />
        </mxCell>
        <mxCell id="LuwOvKd29Y2pihcqQ2Ks-73" value="Ввод a" style="shape=parallelogram;perimeter=parallelogramPerimeter;whiteSpace=wrap;html=1;fixedSize=1;" parent="1" vertex="1">
          <mxGeometry x="1040" y="300" width="200" height="30" as="geometry" />
        </mxCell>
        <mxCell id="LuwOvKd29Y2pihcqQ2Ks-90" style="edgeStyle=orthogonalEdgeStyle;rounded=0;orthogonalLoop=1;jettySize=auto;html=1;" parent="1" source="LuwOvKd29Y2pihcqQ2Ks-75" target="LuwOvKd29Y2pihcqQ2Ks-89" edge="1">
          <mxGeometry relative="1" as="geometry" />
        </mxCell>
        <mxCell id="LuwOvKd29Y2pihcqQ2Ks-75" value="a&amp;nbsp;&lt;span style=&quot;text-align: left;&quot;&gt;≥&lt;/span&gt;&amp;nbsp;b" style="rhombus;whiteSpace=wrap;html=1;" parent="1" vertex="1">
          <mxGeometry x="1040" y="350" width="200" height="60" as="geometry" />
        </mxCell>
        <mxCell id="LuwOvKd29Y2pihcqQ2Ks-77" value="1" style="text;html=1;align=center;verticalAlign=middle;resizable=0;points=[];autosize=1;strokeColor=none;fillColor=none;" parent="1" vertex="1">
          <mxGeometry x="1110" y="270" width="30" height="30" as="geometry" />
        </mxCell>
        <mxCell id="LuwOvKd29Y2pihcqQ2Ks-78" value="" style="endArrow=none;html=1;rounded=0;exitX=1;exitY=0.5;exitDx=0;exitDy=0;" parent="1" source="LuwOvKd29Y2pihcqQ2Ks-75" edge="1">
          <mxGeometry width="50" height="50" relative="1" as="geometry">
            <mxPoint x="1241" y="380" as="sourcePoint" />
            <mxPoint x="1260" y="380" as="targetPoint" />
          </mxGeometry>
        </mxCell>
        <mxCell id="LuwOvKd29Y2pihcqQ2Ks-80" value="" style="endArrow=none;html=1;rounded=0;startArrow=classic;startFill=1;" parent="1" edge="1">
          <mxGeometry width="50" height="50" relative="1" as="geometry">
            <mxPoint x="1140" y="280" as="sourcePoint" />
            <mxPoint x="1260" y="280" as="targetPoint" />
          </mxGeometry>
        </mxCell>
        <mxCell id="LuwOvKd29Y2pihcqQ2Ks-81" value="" style="endArrow=none;html=1;rounded=0;" parent="1" edge="1">
          <mxGeometry width="50" height="50" relative="1" as="geometry">
            <mxPoint x="1260" y="380" as="sourcePoint" />
            <mxPoint x="1260" y="280" as="targetPoint" />
          </mxGeometry>
        </mxCell>
        <mxCell id="LuwOvKd29Y2pihcqQ2Ks-82" value="" style="endArrow=none;html=1;rounded=0;" parent="1" edge="1">
          <mxGeometry width="50" height="50" relative="1" as="geometry">
            <mxPoint x="1140" y="260" as="sourcePoint" />
            <mxPoint x="2080" y="260" as="targetPoint" />
          </mxGeometry>
        </mxCell>
        <mxCell id="LuwOvKd29Y2pihcqQ2Ks-83" value="Да" style="text;html=1;align=center;verticalAlign=middle;resizable=0;points=[];autosize=1;strokeColor=none;fillColor=none;" parent="1" vertex="1">
          <mxGeometry x="1230" y="350" width="40" height="30" as="geometry" />
        </mxCell>
        <mxCell id="LuwOvKd29Y2pihcqQ2Ks-147" style="edgeStyle=orthogonalEdgeStyle;rounded=0;orthogonalLoop=1;jettySize=auto;html=1;" parent="1" source="LuwOvKd29Y2pihcqQ2Ks-84" target="LuwOvKd29Y2pihcqQ2Ks-67" edge="1">
          <mxGeometry relative="1" as="geometry" />
        </mxCell>
        <mxCell id="LuwOvKd29Y2pihcqQ2Ks-84" value="x = -1,71619" style="rounded=0;whiteSpace=wrap;html=1;" parent="1" vertex="1">
          <mxGeometry x="1040" y="60" width="200" height="30" as="geometry" />
        </mxCell>
        <mxCell id="LuwOvKd29Y2pihcqQ2Ks-85" value="x - точка пересечения с осью OX" style="strokeWidth=1;html=1;shape=mxgraph.flowchart.annotation_1;align=left;pointerEvents=1;" parent="1" vertex="1">
          <mxGeometry x="1271" y="60" width="5" height="30" as="geometry" />
        </mxCell>
        <mxCell id="LuwOvKd29Y2pihcqQ2Ks-86" value="" style="endArrow=none;html=1;rounded=0;entryX=0;entryY=0.5;entryDx=0;entryDy=0;entryPerimeter=0;exitX=1;exitY=0.5;exitDx=0;exitDy=0;dashed=1;" parent="1" target="LuwOvKd29Y2pihcqQ2Ks-85" edge="1">
          <mxGeometry width="50" height="50" relative="1" as="geometry">
            <mxPoint x="1241" y="75" as="sourcePoint" />
            <mxPoint x="1321" y="65" as="targetPoint" />
          </mxGeometry>
        </mxCell>
        <mxCell id="LuwOvKd29Y2pihcqQ2Ks-93" style="edgeStyle=orthogonalEdgeStyle;rounded=0;orthogonalLoop=1;jettySize=auto;html=1;" parent="1" source="LuwOvKd29Y2pihcqQ2Ks-89" target="LuwOvKd29Y2pihcqQ2Ks-92" edge="1">
          <mxGeometry relative="1" as="geometry" />
        </mxCell>
        <mxCell id="LuwOvKd29Y2pihcqQ2Ks-89" value="a &amp;lt; x" style="rhombus;whiteSpace=wrap;html=1;" parent="1" vertex="1">
          <mxGeometry x="1040" y="430" width="200" height="60" as="geometry" />
        </mxCell>
        <mxCell id="LuwOvKd29Y2pihcqQ2Ks-91" value="Нет" style="text;html=1;align=center;verticalAlign=middle;resizable=0;points=[];autosize=1;strokeColor=none;fillColor=none;" parent="1" vertex="1">
          <mxGeometry x="1100" y="400" width="40" height="30" as="geometry" />
        </mxCell>
        <mxCell id="LuwOvKd29Y2pihcqQ2Ks-99" style="edgeStyle=orthogonalEdgeStyle;rounded=0;orthogonalLoop=1;jettySize=auto;html=1;" parent="1" source="LuwOvKd29Y2pihcqQ2Ks-92" target="LuwOvKd29Y2pihcqQ2Ks-182" edge="1">
          <mxGeometry relative="1" as="geometry">
            <mxPoint x="1140" y="590" as="targetPoint" />
          </mxGeometry>
        </mxCell>
        <mxCell id="LuwOvKd29Y2pihcqQ2Ks-92" value="a = x" style="rounded=0;whiteSpace=wrap;html=1;" parent="1" vertex="1">
          <mxGeometry x="1040" y="510" width="200" height="30" as="geometry" />
        </mxCell>
        <mxCell id="LuwOvKd29Y2pihcqQ2Ks-94" value="Да" style="text;html=1;align=center;verticalAlign=middle;resizable=0;points=[];autosize=1;strokeColor=none;fillColor=none;" parent="1" vertex="1">
          <mxGeometry x="1100" y="480" width="40" height="30" as="geometry" />
        </mxCell>
        <mxCell id="LuwOvKd29Y2pihcqQ2Ks-96" value="" style="endArrow=none;html=1;rounded=0;entryX=1;entryY=0.5;entryDx=0;entryDy=0;" parent="1" target="LuwOvKd29Y2pihcqQ2Ks-89" edge="1">
          <mxGeometry width="50" height="50" relative="1" as="geometry">
            <mxPoint x="1260" y="460" as="sourcePoint" />
            <mxPoint x="1190" y="520" as="targetPoint" />
          </mxGeometry>
        </mxCell>
        <mxCell id="LuwOvKd29Y2pihcqQ2Ks-97" value="" style="endArrow=none;html=1;rounded=0;" parent="1" edge="1">
          <mxGeometry width="50" height="50" relative="1" as="geometry">
            <mxPoint x="1140" y="560" as="sourcePoint" />
            <mxPoint x="1260" y="560" as="targetPoint" />
          </mxGeometry>
        </mxCell>
        <mxCell id="LuwOvKd29Y2pihcqQ2Ks-98" value="" style="endArrow=none;html=1;rounded=0;" parent="1" edge="1">
          <mxGeometry width="50" height="50" relative="1" as="geometry">
            <mxPoint x="1260" y="560" as="sourcePoint" />
            <mxPoint x="1260" y="460" as="targetPoint" />
          </mxGeometry>
        </mxCell>
        <mxCell id="LuwOvKd29Y2pihcqQ2Ks-100" value="Нет" style="text;html=1;align=center;verticalAlign=middle;resizable=0;points=[];autosize=1;strokeColor=none;fillColor=none;" parent="1" vertex="1">
          <mxGeometry x="1230" y="430" width="40" height="30" as="geometry" />
        </mxCell>
        <mxCell id="LuwOvKd29Y2pihcqQ2Ks-104" style="edgeStyle=orthogonalEdgeStyle;rounded=0;orthogonalLoop=1;jettySize=auto;html=1;endArrow=none;endFill=0;startArrow=classic;startFill=1;" parent="1" source="LuwOvKd29Y2pihcqQ2Ks-102" edge="1">
          <mxGeometry relative="1" as="geometry">
            <mxPoint x="1380" y="260" as="targetPoint" />
          </mxGeometry>
        </mxCell>
        <mxCell id="LuwOvKd29Y2pihcqQ2Ks-118" style="edgeStyle=orthogonalEdgeStyle;rounded=0;orthogonalLoop=1;jettySize=auto;html=1;" parent="1" source="LuwOvKd29Y2pihcqQ2Ks-102" target="LuwOvKd29Y2pihcqQ2Ks-106" edge="1">
          <mxGeometry relative="1" as="geometry" />
        </mxCell>
        <mxCell id="LuwOvKd29Y2pihcqQ2Ks-102" value="Ввод b" style="shape=parallelogram;perimeter=parallelogramPerimeter;whiteSpace=wrap;html=1;fixedSize=1;" parent="1" vertex="1">
          <mxGeometry x="1280" y="300" width="200" height="30" as="geometry" />
        </mxCell>
        <mxCell id="LuwOvKd29Y2pihcqQ2Ks-121" style="edgeStyle=orthogonalEdgeStyle;rounded=0;orthogonalLoop=1;jettySize=auto;html=1;endArrow=none;endFill=0;" parent="1" source="LuwOvKd29Y2pihcqQ2Ks-106" edge="1">
          <mxGeometry relative="1" as="geometry">
            <mxPoint x="1380" y="580" as="targetPoint" />
          </mxGeometry>
        </mxCell>
        <mxCell id="LuwOvKd29Y2pihcqQ2Ks-106" value="a&amp;nbsp;&lt;span style=&quot;text-align: left;&quot;&gt;≥&lt;/span&gt;&amp;nbsp;b" style="rhombus;whiteSpace=wrap;html=1;" parent="1" vertex="1">
          <mxGeometry x="1280" y="350" width="200" height="60" as="geometry" />
        </mxCell>
        <mxCell id="LuwOvKd29Y2pihcqQ2Ks-107" value="" style="endArrow=none;html=1;rounded=0;exitX=1;exitY=0.5;exitDx=0;exitDy=0;" parent="1" source="LuwOvKd29Y2pihcqQ2Ks-106" edge="1">
          <mxGeometry width="50" height="50" relative="1" as="geometry">
            <mxPoint x="1481" y="380" as="sourcePoint" />
            <mxPoint x="1500" y="380" as="targetPoint" />
          </mxGeometry>
        </mxCell>
        <mxCell id="LuwOvKd29Y2pihcqQ2Ks-108" value="Да" style="text;html=1;align=center;verticalAlign=middle;resizable=0;points=[];autosize=1;strokeColor=none;fillColor=none;" parent="1" vertex="1">
          <mxGeometry x="1470" y="350" width="40" height="30" as="geometry" />
        </mxCell>
        <mxCell id="LuwOvKd29Y2pihcqQ2Ks-111" value="Нет" style="text;html=1;align=center;verticalAlign=middle;resizable=0;points=[];autosize=1;strokeColor=none;fillColor=none;" parent="1" vertex="1">
          <mxGeometry x="1340" y="400" width="40" height="30" as="geometry" />
        </mxCell>
        <mxCell id="LuwOvKd29Y2pihcqQ2Ks-119" value="" style="endArrow=none;html=1;rounded=0;" parent="1" edge="1">
          <mxGeometry width="50" height="50" relative="1" as="geometry">
            <mxPoint x="1500" y="380" as="sourcePoint" />
            <mxPoint x="1500" y="280" as="targetPoint" />
          </mxGeometry>
        </mxCell>
        <mxCell id="LuwOvKd29Y2pihcqQ2Ks-120" value="" style="endArrow=none;html=1;rounded=0;startArrow=classic;startFill=1;" parent="1" edge="1">
          <mxGeometry width="50" height="50" relative="1" as="geometry">
            <mxPoint x="1380" y="280" as="sourcePoint" />
            <mxPoint x="1500" y="280" as="targetPoint" />
          </mxGeometry>
        </mxCell>
        <mxCell id="LuwOvKd29Y2pihcqQ2Ks-122" value="2" style="text;html=1;align=center;verticalAlign=middle;resizable=0;points=[];autosize=1;strokeColor=none;fillColor=none;" parent="1" vertex="1">
          <mxGeometry x="1350" y="270" width="30" height="30" as="geometry" />
        </mxCell>
        <mxCell id="LuwOvKd29Y2pihcqQ2Ks-126" style="edgeStyle=orthogonalEdgeStyle;rounded=0;orthogonalLoop=1;jettySize=auto;html=1;startArrow=classic;startFill=1;endArrow=none;endFill=0;" parent="1" source="LuwOvKd29Y2pihcqQ2Ks-123" edge="1">
          <mxGeometry relative="1" as="geometry">
            <mxPoint x="1620" y="260" as="targetPoint" />
          </mxGeometry>
        </mxCell>
        <mxCell id="LuwOvKd29Y2pihcqQ2Ks-127" style="edgeStyle=orthogonalEdgeStyle;rounded=0;orthogonalLoop=1;jettySize=auto;html=1;endArrow=none;endFill=0;" parent="1" source="LuwOvKd29Y2pihcqQ2Ks-123" edge="1">
          <mxGeometry relative="1" as="geometry">
            <mxPoint x="1620" y="580" as="targetPoint" />
          </mxGeometry>
        </mxCell>
        <mxCell id="LuwOvKd29Y2pihcqQ2Ks-123" value="Ввод h" style="shape=parallelogram;perimeter=parallelogramPerimeter;whiteSpace=wrap;html=1;fixedSize=1;" parent="1" vertex="1">
          <mxGeometry x="1520" y="300" width="200" height="30" as="geometry" />
        </mxCell>
        <mxCell id="LuwOvKd29Y2pihcqQ2Ks-128" value="3" style="text;html=1;align=center;verticalAlign=middle;resizable=0;points=[];autosize=1;strokeColor=none;fillColor=none;" parent="1" vertex="1">
          <mxGeometry x="1590" y="270" width="30" height="30" as="geometry" />
        </mxCell>
        <mxCell id="LuwOvKd29Y2pihcqQ2Ks-136" style="edgeStyle=orthogonalEdgeStyle;rounded=0;orthogonalLoop=1;jettySize=auto;html=1;" parent="1" source="LuwOvKd29Y2pihcqQ2Ks-129" target="LuwOvKd29Y2pihcqQ2Ks-133" edge="1">
          <mxGeometry relative="1" as="geometry" />
        </mxCell>
        <mxCell id="LuwOvKd29Y2pihcqQ2Ks-129" value="a и b и h" style="rhombus;whiteSpace=wrap;html=1;" parent="1" vertex="1">
          <mxGeometry x="1740" y="300" width="200" height="60" as="geometry" />
        </mxCell>
        <mxCell id="LuwOvKd29Y2pihcqQ2Ks-131" style="edgeStyle=orthogonalEdgeStyle;rounded=0;orthogonalLoop=1;jettySize=auto;html=1;startArrow=classic;startFill=1;endArrow=none;endFill=0;" parent="1" edge="1">
          <mxGeometry relative="1" as="geometry">
            <mxPoint x="1839.92" y="260" as="targetPoint" />
            <mxPoint x="1839.92" y="300" as="sourcePoint" />
            <Array as="points">
              <mxPoint x="1839.92" y="280" />
              <mxPoint x="1839.92" y="280" />
            </Array>
          </mxGeometry>
        </mxCell>
        <mxCell id="LuwOvKd29Y2pihcqQ2Ks-142" style="edgeStyle=orthogonalEdgeStyle;rounded=0;orthogonalLoop=1;jettySize=auto;html=1;" parent="1" source="LuwOvKd29Y2pihcqQ2Ks-133" target="LuwOvKd29Y2pihcqQ2Ks-141" edge="1">
          <mxGeometry relative="1" as="geometry" />
        </mxCell>
        <mxCell id="LuwOvKd29Y2pihcqQ2Ks-133" value="result = левый прямоугольник&lt;div&gt;(a, b, h)&lt;/div&gt;" style="rounded=0;whiteSpace=wrap;html=1;" parent="1" vertex="1">
          <mxGeometry x="1740" y="380" width="200" height="40" as="geometry" />
        </mxCell>
        <mxCell id="LuwOvKd29Y2pihcqQ2Ks-134" value="" style="endArrow=none;html=1;rounded=0;entryX=0.051;entryY=0.009;entryDx=0;entryDy=0;entryPerimeter=0;exitX=0.051;exitY=1.011;exitDx=0;exitDy=0;exitPerimeter=0;" parent="1" edge="1">
          <mxGeometry width="50" height="50" relative="1" as="geometry">
            <mxPoint x="1750" y="380" as="sourcePoint" />
            <mxPoint x="1750" y="420" as="targetPoint" />
          </mxGeometry>
        </mxCell>
        <mxCell id="LuwOvKd29Y2pihcqQ2Ks-135" value="" style="endArrow=none;html=1;rounded=0;entryX=0.051;entryY=0.009;entryDx=0;entryDy=0;entryPerimeter=0;exitX=0.051;exitY=1.011;exitDx=0;exitDy=0;exitPerimeter=0;" parent="1" edge="1">
          <mxGeometry width="50" height="50" relative="1" as="geometry">
            <mxPoint x="1930" y="380" as="sourcePoint" />
            <mxPoint x="1930" y="420" as="targetPoint" />
          </mxGeometry>
        </mxCell>
        <mxCell id="LuwOvKd29Y2pihcqQ2Ks-137" value="Да" style="text;html=1;align=center;verticalAlign=middle;resizable=0;points=[];autosize=1;strokeColor=none;fillColor=none;" parent="1" vertex="1">
          <mxGeometry x="1800" y="350" width="40" height="30" as="geometry" />
        </mxCell>
        <mxCell id="LuwOvKd29Y2pihcqQ2Ks-138" value="" style="endArrow=none;html=1;rounded=0;entryX=0.051;entryY=0.009;entryDx=0;entryDy=0;entryPerimeter=0;" parent="1" source="LuwOvKd29Y2pihcqQ2Ks-133" edge="1">
          <mxGeometry width="50" height="50" relative="1" as="geometry">
            <mxPoint x="1750" y="410" as="sourcePoint" />
            <mxPoint x="1750" y="380" as="targetPoint" />
          </mxGeometry>
        </mxCell>
        <mxCell id="LuwOvKd29Y2pihcqQ2Ks-140" value="4" style="text;html=1;align=center;verticalAlign=middle;resizable=0;points=[];autosize=1;strokeColor=none;fillColor=none;" parent="1" vertex="1">
          <mxGeometry x="1810" y="270" width="30" height="30" as="geometry" />
        </mxCell>
        <mxCell id="LuwOvKd29Y2pihcqQ2Ks-143" style="edgeStyle=orthogonalEdgeStyle;rounded=0;orthogonalLoop=1;jettySize=auto;html=1;endArrow=none;endFill=0;" parent="1" source="LuwOvKd29Y2pihcqQ2Ks-141" edge="1">
          <mxGeometry relative="1" as="geometry">
            <mxPoint x="1840" y="580" as="targetPoint" />
          </mxGeometry>
        </mxCell>
        <mxCell id="LuwOvKd29Y2pihcqQ2Ks-141" value="Вывод result" style="shape=parallelogram;perimeter=parallelogramPerimeter;whiteSpace=wrap;html=1;fixedSize=1;" parent="1" vertex="1">
          <mxGeometry x="1740" y="440" width="200" height="30" as="geometry" />
        </mxCell>
        <mxCell id="LuwOvKd29Y2pihcqQ2Ks-144" value="" style="endArrow=none;html=1;rounded=0;exitX=1;exitY=0.5;exitDx=0;exitDy=0;" parent="1" source="LuwOvKd29Y2pihcqQ2Ks-129" edge="1">
          <mxGeometry width="50" height="50" relative="1" as="geometry">
            <mxPoint x="1960" y="340" as="sourcePoint" />
            <mxPoint x="1960" y="330" as="targetPoint" />
          </mxGeometry>
        </mxCell>
        <mxCell id="LuwOvKd29Y2pihcqQ2Ks-148" value="" style="endArrow=none;html=1;rounded=0;startArrow=classic;startFill=1;" parent="1" edge="1">
          <mxGeometry width="50" height="50" relative="1" as="geometry">
            <mxPoint x="1140" y="110" as="sourcePoint" />
            <mxPoint x="2200" y="110" as="targetPoint" />
          </mxGeometry>
        </mxCell>
        <mxCell id="LuwOvKd29Y2pihcqQ2Ks-149" value="" style="endArrow=none;html=1;rounded=0;" parent="1" edge="1">
          <mxGeometry width="50" height="50" relative="1" as="geometry">
            <mxPoint x="1960" y="330" as="sourcePoint" />
            <mxPoint x="1960" y="110" as="targetPoint" />
          </mxGeometry>
        </mxCell>
        <mxCell id="LuwOvKd29Y2pihcqQ2Ks-161" style="edgeStyle=orthogonalEdgeStyle;rounded=0;orthogonalLoop=1;jettySize=auto;html=1;" parent="1" source="LuwOvKd29Y2pihcqQ2Ks-150" target="LuwOvKd29Y2pihcqQ2Ks-157" edge="1">
          <mxGeometry relative="1" as="geometry" />
        </mxCell>
        <mxCell id="LuwOvKd29Y2pihcqQ2Ks-150" value="a и b и h" style="rhombus;whiteSpace=wrap;html=1;" parent="1" vertex="1">
          <mxGeometry x="1980" y="300" width="200" height="60" as="geometry" />
        </mxCell>
        <mxCell id="LuwOvKd29Y2pihcqQ2Ks-151" value="" style="endArrow=none;html=1;rounded=0;exitX=1;exitY=0.5;exitDx=0;exitDy=0;" parent="1" source="LuwOvKd29Y2pihcqQ2Ks-150" edge="1">
          <mxGeometry width="50" height="50" relative="1" as="geometry">
            <mxPoint x="2050" y="250" as="sourcePoint" />
            <mxPoint x="2200" y="330" as="targetPoint" />
          </mxGeometry>
        </mxCell>
        <mxCell id="LuwOvKd29Y2pihcqQ2Ks-152" value="" style="endArrow=none;html=1;rounded=0;" parent="1" edge="1">
          <mxGeometry width="50" height="50" relative="1" as="geometry">
            <mxPoint x="2200" y="330" as="sourcePoint" />
            <mxPoint x="2200" y="110" as="targetPoint" />
          </mxGeometry>
        </mxCell>
        <mxCell id="LuwOvKd29Y2pihcqQ2Ks-153" value="Нет" style="text;html=1;align=center;verticalAlign=middle;resizable=0;points=[];autosize=1;strokeColor=none;fillColor=none;" parent="1" vertex="1">
          <mxGeometry x="1920" y="300" width="40" height="30" as="geometry" />
        </mxCell>
        <mxCell id="LuwOvKd29Y2pihcqQ2Ks-154" style="edgeStyle=orthogonalEdgeStyle;rounded=0;orthogonalLoop=1;jettySize=auto;html=1;startArrow=classic;startFill=1;endArrow=none;endFill=0;" parent="1" edge="1">
          <mxGeometry relative="1" as="geometry">
            <mxPoint x="2079.92" y="260" as="targetPoint" />
            <mxPoint x="2079.92" y="300" as="sourcePoint" />
            <Array as="points">
              <mxPoint x="2079.92" y="280" />
              <mxPoint x="2079.92" y="280" />
            </Array>
          </mxGeometry>
        </mxCell>
        <mxCell id="LuwOvKd29Y2pihcqQ2Ks-155" value="Нет" style="text;html=1;align=center;verticalAlign=middle;resizable=0;points=[];autosize=1;strokeColor=none;fillColor=none;" parent="1" vertex="1">
          <mxGeometry x="2160" y="300" width="40" height="30" as="geometry" />
        </mxCell>
        <mxCell id="LuwOvKd29Y2pihcqQ2Ks-156" value="5" style="text;html=1;align=center;verticalAlign=middle;resizable=0;points=[];autosize=1;strokeColor=none;fillColor=none;" parent="1" vertex="1">
          <mxGeometry x="2050" y="270" width="30" height="30" as="geometry" />
        </mxCell>
        <mxCell id="LuwOvKd29Y2pihcqQ2Ks-166" style="edgeStyle=orthogonalEdgeStyle;rounded=0;orthogonalLoop=1;jettySize=auto;html=1;" parent="1" source="LuwOvKd29Y2pihcqQ2Ks-157" edge="1">
          <mxGeometry relative="1" as="geometry">
            <mxPoint x="2080.018181818182" y="440" as="targetPoint" />
          </mxGeometry>
        </mxCell>
        <mxCell id="LuwOvKd29Y2pihcqQ2Ks-157" value="result = левый прямоугольник&lt;div&gt;(a, b, h)&lt;/div&gt;" style="rounded=0;whiteSpace=wrap;html=1;" parent="1" vertex="1">
          <mxGeometry x="1980" y="380" width="200" height="40" as="geometry" />
        </mxCell>
        <mxCell id="LuwOvKd29Y2pihcqQ2Ks-158" value="" style="endArrow=none;html=1;rounded=0;entryX=0.051;entryY=0.009;entryDx=0;entryDy=0;entryPerimeter=0;exitX=0.051;exitY=1.011;exitDx=0;exitDy=0;exitPerimeter=0;" parent="1" edge="1">
          <mxGeometry width="50" height="50" relative="1" as="geometry">
            <mxPoint x="1990" y="380" as="sourcePoint" />
            <mxPoint x="1990" y="420" as="targetPoint" />
          </mxGeometry>
        </mxCell>
        <mxCell id="LuwOvKd29Y2pihcqQ2Ks-159" value="" style="endArrow=none;html=1;rounded=0;entryX=0.051;entryY=0.009;entryDx=0;entryDy=0;entryPerimeter=0;exitX=0.051;exitY=1.011;exitDx=0;exitDy=0;exitPerimeter=0;" parent="1" edge="1">
          <mxGeometry width="50" height="50" relative="1" as="geometry">
            <mxPoint x="2170" y="380" as="sourcePoint" />
            <mxPoint x="2170" y="420" as="targetPoint" />
          </mxGeometry>
        </mxCell>
        <mxCell id="LuwOvKd29Y2pihcqQ2Ks-160" value="" style="endArrow=none;html=1;rounded=0;entryX=0.051;entryY=0.009;entryDx=0;entryDy=0;entryPerimeter=0;" parent="1" source="LuwOvKd29Y2pihcqQ2Ks-157" edge="1">
          <mxGeometry width="50" height="50" relative="1" as="geometry">
            <mxPoint x="1990" y="410" as="sourcePoint" />
            <mxPoint x="1990" y="380" as="targetPoint" />
          </mxGeometry>
        </mxCell>
        <mxCell id="LuwOvKd29Y2pihcqQ2Ks-165" value="" style="endArrow=none;html=1;rounded=0;entryX=0.051;entryY=0.009;entryDx=0;entryDy=0;entryPerimeter=0;" parent="1" edge="1">
          <mxGeometry width="50" height="50" relative="1" as="geometry">
            <mxPoint x="1990" y="440" as="sourcePoint" />
            <mxPoint x="1990" y="440" as="targetPoint" />
          </mxGeometry>
        </mxCell>
        <mxCell id="LuwOvKd29Y2pihcqQ2Ks-173" value="" style="group" parent="1" vertex="1" connectable="0">
          <mxGeometry x="1980" y="440" width="200" height="30" as="geometry" />
        </mxCell>
        <mxCell id="LuwOvKd29Y2pihcqQ2Ks-174" value="exact = ньютон(a, b)" style="rounded=0;whiteSpace=wrap;html=1;" parent="LuwOvKd29Y2pihcqQ2Ks-173" vertex="1">
          <mxGeometry width="200" height="30" as="geometry" />
        </mxCell>
        <mxCell id="LuwOvKd29Y2pihcqQ2Ks-175" value="" style="endArrow=none;html=1;rounded=0;" parent="LuwOvKd29Y2pihcqQ2Ks-173" edge="1">
          <mxGeometry width="50" height="50" relative="1" as="geometry">
            <mxPoint x="10" as="sourcePoint" />
            <mxPoint x="10" y="30" as="targetPoint" />
          </mxGeometry>
        </mxCell>
        <mxCell id="LuwOvKd29Y2pihcqQ2Ks-176" value="" style="endArrow=none;html=1;rounded=0;" parent="LuwOvKd29Y2pihcqQ2Ks-173" edge="1">
          <mxGeometry width="50" height="50" relative="1" as="geometry">
            <mxPoint x="190" as="sourcePoint" />
            <mxPoint x="190" y="30" as="targetPoint" />
          </mxGeometry>
        </mxCell>
        <mxCell id="LuwOvKd29Y2pihcqQ2Ks-181" style="edgeStyle=orthogonalEdgeStyle;rounded=0;orthogonalLoop=1;jettySize=auto;html=1;endArrow=none;endFill=0;" parent="1" source="LuwOvKd29Y2pihcqQ2Ks-177" edge="1">
          <mxGeometry relative="1" as="geometry">
            <mxPoint x="2080" y="579.9999999999999" as="targetPoint" />
          </mxGeometry>
        </mxCell>
        <mxCell id="LuwOvKd29Y2pihcqQ2Ks-177" value="Вывод result, exact,&lt;div&gt;|result - exact|,&lt;/div&gt;&lt;div&gt;|(result - exact) / exact * 100|&lt;/div&gt;" style="shape=parallelogram;perimeter=parallelogramPerimeter;whiteSpace=wrap;html=1;fixedSize=1;" parent="1" vertex="1">
          <mxGeometry x="1980" y="490" width="200" height="50" as="geometry" />
        </mxCell>
        <mxCell id="LuwOvKd29Y2pihcqQ2Ks-178" style="edgeStyle=orthogonalEdgeStyle;rounded=0;orthogonalLoop=1;jettySize=auto;html=1;" parent="1" source="LuwOvKd29Y2pihcqQ2Ks-174" target="LuwOvKd29Y2pihcqQ2Ks-177" edge="1">
          <mxGeometry relative="1" as="geometry" />
        </mxCell>
        <mxCell id="LuwOvKd29Y2pihcqQ2Ks-179" value="" style="endArrow=none;html=1;rounded=0;" parent="1" edge="1">
          <mxGeometry width="50" height="50" relative="1" as="geometry">
            <mxPoint x="1140" y="580" as="sourcePoint" />
            <mxPoint x="2080" y="580" as="targetPoint" />
          </mxGeometry>
        </mxCell>
        <mxCell id="LuwOvKd29Y2pihcqQ2Ks-182" value="Конец" style="rounded=1;whiteSpace=wrap;html=1;arcSize=50;" parent="1" vertex="1">
          <mxGeometry x="1040" y="600" width="200" height="30" as="geometry" />
        </mxCell>
        <mxCell id="LuwOvKd29Y2pihcqQ2Ks-183" value="Да" style="text;html=1;align=center;verticalAlign=middle;resizable=0;points=[];autosize=1;strokeColor=none;fillColor=none;" parent="1" vertex="1">
          <mxGeometry x="2040" y="350" width="40" height="30" as="geometry" />
        </mxCell>
      </root>
    </mxGraphModel>
  </diagram>
</mxfile>
